<?xml version="1.0" encoding="iso-8859-1"?>
<!-- Generator: Adobe Illustrator 19.0.0, SVG Export Plug-In . SVG Version: 6.00 Build 0)  -->
<svg xmlns="http://www.w3.org/2000/svg" xmlns:xlink="http://www.w3.org/1999/xlink" version="1.1" id="Capa_1" x="0px" y="0px" viewBox="0 0 480 480" style="enable-background:new 0 0 480 480;" xml:space="preserve" width="512px" height="512px">
<g>
	<g>
		<rect x="216" y="287.552" width="24" height="16" fill="#68f3f1"/>
	</g>
</g>
<g>
	<g>
		<rect x="120" y="132" width="96" height="16" fill="#68f3f1"/>
	</g>
</g>
<g>
	<g>
		<rect x="84" y="287.552" width="108" height="16" fill="#68f3f1"/>
	</g>
</g>
<g>
	<g>
		<rect x="192" y="220.88" width="24" height="16" fill="#68f3f1"/>
	</g>
</g>
<g>
	<g>
		<rect y="187.552" width="48" height="16" fill="#68f3f1"/>
	</g>
</g>
<g>
	<g>
		<rect y="243.112" width="108" height="16" fill="#68f3f1"/>
	</g>
</g>
<g>
	<g>
		<rect y="287.552" width="24" height="16" fill="#68f3f1"/>
	</g>
</g>
<g>
	<g>
		<rect x="216" y="187.552" width="24" height="16" fill="#68f3f1"/>
	</g>
</g>
<g>
	<g>
		<rect x="36" y="132" width="48" height="16" fill="#68f3f1"/>
	</g>
</g>
<g>
	<g>
		<rect x="192" y="332" width="36" height="16" fill="#68f3f1"/>
	</g>
</g>
<g>
	<g>
		<rect x="24" y="332" width="72" height="16" fill="#68f3f1"/>
	</g>
</g>
<g>
	<g>
		<rect x="84" y="187.552" width="108" height="16" fill="#68f3f1"/>
	</g>
</g>
<g>
	<g>
		<rect x="120" y="332" width="48" height="16" fill="#68f3f1"/>
	</g>
</g>
<g>
	<g>
		<path d="M479.592,137.472c0-0.12-0.12-0.208-0.168-0.32c-0.468-1.195-1.221-2.257-2.192-3.096c-0.487-0.425-1.024-0.788-1.6-1.08    c-0.259-0.15-0.526-0.286-0.8-0.408c-0.902-0.36-1.861-0.552-2.832-0.568H240v16h208L312,250l-67.2-50.4l-9.6,12.8l28.464,21.352    l-28.872,24.744l10.4,12.152l31.608-27.064l30.4,22.816c2.844,2.133,6.756,2.133,9.6,0l30.4-22.816L450.4,332H240v16h232    c0.963-0.016,1.915-0.209,2.808-0.568c0.275-0.113,0.542-0.244,0.8-0.392c0.576-0.292,1.114-0.655,1.6-1.08    c0.238-0.201,0.465-0.414,0.68-0.64c0.455-0.519,0.842-1.095,1.152-1.712c0.132-0.212,0.253-0.431,0.36-0.656    c0.038-0.057,0.072-0.116,0.104-0.176c0.314-0.84,0.482-1.727,0.496-2.624c0-0.056,0-0.096,0-0.152V140    C479.996,139.141,479.859,138.288,479.592,137.472z M464,322.608l-103.672-88.856L464,156V322.608z" fill="#68f3f1"/>
	</g>
</g>
<g>
</g>
<g>
</g>
<g>
</g>
<g>
</g>
<g>
</g>
<g>
</g>
<g>
</g>
<g>
</g>
<g>
</g>
<g>
</g>
<g>
</g>
<g>
</g>
<g>
</g>
<g>
</g>
<g>
</g>
</svg>
